<svg width="46" height="34" viewBox="0 0 46 34" fill="none" xmlns="http://www.w3.org/2000/svg">
<path d="M0 29.5219C0 31.4777 1.71701 33.0645 3.83333 33.0645H42.1667C44.283 33.0645 46 31.4777 46 29.5219V16.5323H0V29.5219ZM15.3333 24.5032C15.3333 24.0161 15.7646 23.6175 16.2917 23.6175H27.1528C27.6799 23.6175 28.1111 24.0161 28.1111 24.5032V27.4554C28.1111 27.9425 27.6799 28.341 27.1528 28.341H16.2917C15.7646 28.341 15.3333 27.9425 15.3333 27.4554V24.5032ZM5.11111 24.5032C5.11111 24.0161 5.54236 23.6175 6.06944 23.6175H11.8194C12.3465 23.6175 12.7778 24.0161 12.7778 24.5032V27.4554C12.7778 27.9425 12.3465 28.341 11.8194 28.341H6.06944C5.54236 28.341 5.11111 27.9425 5.11111 27.4554V24.5032ZM46 3.54263V7.08526H0V3.54263C0 1.5868 1.71701 0 3.83333 0H42.1667C44.283 0 46 1.5868 46 3.54263Z" fill="#0198E9" fill-opacity="0.8"/>
</svg>
