<svg width="42" height="42" viewBox="0 0 42 42" fill="none" xmlns="http://www.w3.org/2000/svg">
<circle cx="20.8533" cy="20.8533" r="20.8533" fill="#0077B5"/>
<path fill-rule="evenodd" clip-rule="evenodd" d="M16.0242 11.5331C16.0242 12.7072 15.1302 13.6574 13.7321 13.6574C12.3886 13.6574 11.4946 12.7072 11.5222 11.5331C11.4946 10.3019 12.3885 9.37939 13.7589 9.37939C15.1302 9.37939 15.9974 10.3019 16.0242 11.5331ZM11.6346 29.0116V15.3355H15.885V29.0108H11.6346V29.0116Z" fill="white"/>
<path fill-rule="evenodd" clip-rule="evenodd" d="M19.2925 19.6999C19.2925 17.9941 19.2363 16.5398 19.1801 15.3372H22.8719L23.0681 17.2108H23.152C23.7114 16.3436 25.1094 15.0303 27.3747 15.0303C30.1707 15.0303 32.2682 16.8762 32.2682 20.9017V29.0133H28.0179V21.4343C28.0179 19.6714 27.4032 18.4696 25.8651 18.4696C24.6901 18.4696 23.9915 19.2806 23.7122 20.063C23.5999 20.3432 23.5445 20.734 23.5445 21.1265V29.0133H19.2942V19.6999H19.2925Z" fill="white"/>
</svg>
