<svg width="42" height="42" viewBox="0 0 42 42" fill="none" xmlns="http://www.w3.org/2000/svg">
<circle cx="20.8533" cy="20.8533" r="20.8533" fill="#1DA1F2"/>
<path fill-rule="evenodd" clip-rule="evenodd" d="M32.0079 13.6743C31.1875 14.0387 30.3047 14.2842 29.3787 14.395C30.324 13.8283 31.0499 12.9313 31.3913 11.8625C30.5077 12.3876 29.5267 12.7677 28.4847 12.9737C27.6495 12.0842 26.4587 11.5278 25.143 11.5278C22.615 11.5278 20.5652 13.5776 20.5652 16.1056C20.5652 16.4641 20.6061 16.8137 20.6842 17.1491C16.8791 16.9587 13.5062 15.1358 11.2482 12.366C10.854 13.0421 10.6286 13.8283 10.6286 14.6672C10.6286 16.2551 11.4356 17.6564 12.665 18.4775C11.9138 18.4537 11.2088 18.2477 10.5907 17.9048V17.9621C10.5907 20.1807 12.1697 22.0304 14.2626 22.4521C13.8788 22.5562 13.4742 22.6128 13.057 22.6128C12.7617 22.6128 12.4746 22.5837 12.195 22.5302C12.7773 24.3487 14.4686 25.6726 16.4716 25.7098C14.9052 26.937 12.9313 27.6695 10.7863 27.6695C10.4159 27.6695 10.0515 27.648 9.69373 27.6048C11.7197 28.9034 14.1258 29.6621 16.7111 29.6621C25.1311 29.6621 29.7357 22.6864 29.7357 16.6374C29.7357 16.4388 29.732 16.241 29.7223 16.0454C30.6178 15.3983 31.3943 14.5921 32.0079 13.6743Z" fill="white"/>
</svg>
